<svg width="9.818665" height="9.818667" viewBox="0 0 9.81866 9.81867" fill="none" xmlns="http://www.w3.org/2000/svg" xmlns:xlink="http://www.w3.org/1999/xlink">
	<desc>
			Created with Pixso.
	</desc>
	<defs/>
	<path id="Vector" d="M4.91 5.84L8.68 9.61C8.81 9.73 8.98 9.8 9.15 9.8C9.33 9.8 9.49 9.73 9.62 9.6C9.74 9.48 9.81 9.31 9.81 9.14C9.82 8.96 9.75 8.79 9.63 8.67L5.86 4.9L9.63 1.12C9.75 1 9.82 0.83 9.81 0.66C9.81 0.48 9.74 0.31 9.62 0.19C9.49 0.07 9.33 0 9.15 2.52e-5C8.98 -0.01 8.81 0.06 8.68 0.18L4.91 3.95L1.14 0.18C1.01 0.06 0.85 0 0.67 0C0.5 0 0.34 0.07 0.21 0.2C0.09 0.32 0.02 0.48 0.02 0.66C0.02 0.83 0.08 1 0.2 1.12L3.97 4.9L0.2 8.67C0.13 8.73 0.08 8.8 0.05 8.88C0.01 8.97 0 9.05 3.05e-5 9.14C-0.01 9.23 0.01 9.32 0.04 9.4C0.08 9.48 0.13 9.56 0.19 9.62C0.25 9.68 0.33 9.73 0.41 9.76C0.49 9.8 0.58 9.81 0.67 9.81C0.76 9.81 0.84 9.79 0.92 9.76C1.01 9.72 1.08 9.67 1.14 9.61L4.91 5.84Z" fill="#323749" fill-opacity="1.000000" fill-rule="evenodd"/>
</svg>
