<svg width="16.000000" height="16.000000" viewBox="0 0 16 16" fill="none" xmlns="http://www.w3.org/2000/svg" xmlns:xlink="http://www.w3.org/1999/xlink">
	<desc>
			Created with Pixso.
	</desc>
	<defs>
		<clipPath id="clip0_382">
			<rect id="o" width="16.000000" height="16.000000" transform="matrix(1 0 0 -1 0 16)" fill="white" fill-opacity="0"/>
		</clipPath>
	</defs>
	<rect id="o" width="16.000000" height="16.000000" transform="matrix(1 0 0 -1 0 16)" fill="#FFFFFF" fill-opacity="0"/>
	<g clip-path="url(#clip0_382)">
		<path id="Vector" d="M4.46 4.46C5.4 3.52 6.67 3 7.99 3C9.32 3 10.59 3.52 11.53 4.46C12.47 5.4 12.99 6.67 12.99 8C12.99 9.32 12.47 10.59 11.53 11.53C10.59 12.47 9.32 13 7.99 13C6.67 13 5.4 12.47 4.46 11.53C3.52 10.59 2.99 9.32 2.99 8C2.99 6.67 3.52 5.4 4.46 4.46Z" stroke="#EF9919" stroke-opacity="1.000000" stroke-width="4.000000" stroke-linejoin="round"/>
	</g>
</svg>
