<svg width="19.000000" height="19.000000" viewBox="0 0 19 19" fill="none" xmlns="http://www.w3.org/2000/svg" xmlns:xlink="http://www.w3.org/1999/xlink">
	<desc>
			Created with Pixso.
	</desc>
	<defs/>
	<path id="Vector" d="M9.81 9.19L2.28 10.45C2.19 10.46 2.11 10.5 2.04 10.56C1.97 10.61 1.92 10.68 1.89 10.77L-0.7 17.72C-0.95 18.36 -0.28 18.97 0.33 18.67L18.33 9.67C18.45 9.6 18.56 9.51 18.63 9.39C18.71 9.27 18.75 9.13 18.75 9C18.75 8.86 18.71 8.72 18.63 8.6C18.56 8.48 18.45 8.39 18.33 8.32L0.33 -0.68C-0.28 -0.98 -0.95 -0.37 -0.7 0.27L1.89 7.22C1.92 7.31 1.98 7.38 2.04 7.44C2.11 7.49 2.19 7.53 2.28 7.54L9.81 8.8C9.86 8.81 9.9 8.83 9.93 8.87C9.96 8.9 9.98 8.95 9.98 9C9.98 9.04 9.96 9.09 9.93 9.12C9.9 9.16 9.86 9.18 9.81 9.19L9.81 9.19Z" fill="#FFFFFF" fill-opacity="1.000000" fill-rule="nonzero"/>
</svg>
