<svg width="9.333130" height="5.333252" viewBox="0 0 9.33313 5.33325" fill="none" xmlns="http://www.w3.org/2000/svg" xmlns:xlink="http://www.w3.org/1999/xlink">
	<desc>
			Created with Pixso.
	</desc>
	<defs/>
	<path id="Vector" d="M8.66 0C9.23 0 9.53 0.65 9.18 1.08L9.13 1.13L5.13 5.13C5.02 5.25 4.86 5.32 4.7 5.33C4.54 5.34 4.38 5.29 4.25 5.19L4.19 5.13L0.19 1.13L0.13 1.07L0.1 1.02L0.06 0.95L0.05 0.93L0.03 0.89L0.01 0.81L0 0.78L0 0.74L0 0.7L0 0.62L0 0.58L0 0.54L0.01 0.51L0.03 0.44L0.05 0.39L0.1 0.3L0.14 0.24L0.19 0.19L0.25 0.14L0.3 0.1L0.37 0.06L0.39 0.05L0.44 0.03L0.51 0.01L0.54 0.01L0.58 0L0.62 0L8.66 0Z" fill="#323749" fill-opacity="1.000000" fill-rule="nonzero"/>
</svg>
