<svg width="13.326080" height="9.514954" viewBox="0 0 13.3261 9.51495" fill="none" xmlns="http://www.w3.org/2000/svg" xmlns:xlink="http://www.w3.org/1999/xlink">
	<desc>
			Created with Pixso.
	</desc>
	<defs/>
	<path id="Vector" d="M13.03 0.29C13.22 0.48 13.32 0.73 13.32 1C13.32 1.26 13.22 1.51 13.03 1.7L5.53 9.2C5.43 9.3 5.32 9.38 5.19 9.43C5.06 9.48 4.92 9.51 4.78 9.51C4.64 9.51 4.5 9.48 4.37 9.43C4.24 9.38 4.12 9.3 4.02 9.2L0.3 5.47C0.2 5.38 0.13 5.27 0.08 5.15C0.02 5.03 0 4.9 3.05e-5 4.76C-0.01 4.63 0.02 4.5 0.07 4.38C0.12 4.25 0.19 4.14 0.29 4.05C0.38 3.95 0.49 3.88 0.62 3.83C0.74 3.78 0.87 3.75 1 3.75C1.14 3.76 1.27 3.78 1.39 3.84C1.51 3.89 1.62 3.96 1.71 4.06L4.78 7.12L11.61 0.29C11.71 0.2 11.82 0.12 11.94 0.07C12.06 0.02 12.19 0 12.32 0C12.45 0 12.58 0.02 12.7 0.07C12.83 0.12 12.94 0.2 13.03 0.29Z" fill="#323749" fill-opacity="1.000000" fill-rule="evenodd"/>
</svg>
