<svg width="12.000000" height="13.333313" viewBox="0 0 12 13.3333" fill="none" xmlns="http://www.w3.org/2000/svg" xmlns:xlink="http://www.w3.org/1999/xlink">
	<desc>
			Created with Pixso.
	</desc>
	<defs/>
	<path id="Vector" d="M3.21 0.91C3.3 0.64 3.47 0.41 3.7 0.25C3.92 0.08 4.2 -6.11e-5 4.48 0L7.51 0C7.79 -6.11e-5 8.07 0.08 8.29 0.25C8.52 0.41 8.69 0.64 8.78 0.91L9.14 2L11.33 2C11.51 2 11.67 2.07 11.8 2.19C11.92 2.32 12 2.48 12 2.66C12 2.84 11.92 3.01 11.8 3.13C11.67 3.26 11.51 3.33 11.33 3.33L10.66 3.33L10.66 11.33C10.66 11.86 10.45 12.37 10.08 12.74C9.7 13.12 9.19 13.33 8.66 13.33L3.33 13.33C2.8 13.33 2.29 13.12 1.91 12.74C1.54 12.37 1.33 11.86 1.33 11.33L1.33 3.33L0.66 3.33C0.48 3.33 0.32 3.26 0.19 3.13C0.07 3.01 0 2.84 0 2.66C0 2.48 0.07 2.32 0.19 2.19C0.32 2.07 0.48 2 0.66 2L2.85 2L3.21 0.91ZM4.25 2L4.48 1.33L7.51 1.33L7.74 2L4.25 2Z" fill="#323749" fill-opacity="1.000000" fill-rule="evenodd"/>
</svg>
