<svg width="12.370941" height="12.370605" viewBox="0 0 12.3709 12.3706" fill="none" xmlns="http://www.w3.org/2000/svg" xmlns:xlink="http://www.w3.org/1999/xlink">
	<desc>
			Created with Pixso.
	</desc>
	<defs/>
	<path id="Vector" d="M5.17 2.48L9.88 7.19L5.1 11.98C4.88 12.2 4.59 12.33 4.27 12.36L4.16 12.37L0.67 12.37C0.5 12.37 0.34 12.3 0.22 12.19C0.1 12.08 0.02 11.93 0 11.77L0 11.69L0 8.2C9.15e-5 7.89 0.11 7.59 0.31 7.35L0.39 7.26L5.17 2.48ZM7.26 0.39C7.5 0.15 7.81 0.01 8.15 0C8.48 -0.02 8.81 0.09 9.06 0.31L9.15 0.39L11.98 3.21C12.21 3.45 12.35 3.77 12.36 4.1C12.38 4.43 12.27 4.76 12.05 5.01L11.98 5.1L10.83 6.25L6.11 1.54L7.26 0.39Z" fill="#323749" fill-opacity="1.000000" fill-rule="nonzero"/>
</svg>
