<svg width="12.500000" height="12.500000" viewBox="0 0 12.5 12.5" fill="none" xmlns="http://www.w3.org/2000/svg" xmlns:xlink="http://www.w3.org/1999/xlink">
	<desc>
			Created with Pixso.
	</desc>
	<defs/>
	<path id="Vector" d="M12.5 6.25C12.5 6.44 12.42 6.63 12.28 6.78C12.13 6.92 11.94 7 11.75 7L7 7L7 11.75C7 11.94 6.92 12.13 6.78 12.28C6.63 12.42 6.44 12.5 6.25 12.5C6.05 12.5 5.86 12.42 5.71 12.28C5.57 12.13 5.5 11.94 5.5 11.75L5.5 7L0.75 7C0.55 7 0.36 6.92 0.21 6.78C0.07 6.63 0 6.44 0 6.25C0 6.05 0.07 5.86 0.21 5.71C0.36 5.57 0.55 5.5 0.75 5.5L5.5 5.5L5.5 0.75C5.5 0.55 5.57 0.36 5.71 0.21C5.86 0.07 6.05 0 6.25 0C6.44 0 6.63 0.07 6.78 0.21C6.92 0.36 7 0.55 7 0.75L7 5.5L11.75 5.5C11.94 5.5 12.13 5.57 12.28 5.71C12.42 5.86 12.5 6.05 12.5 6.25Z" fill="#FFFFFF" fill-opacity="1.000000" fill-rule="nonzero"/>
	<path id="Vector" d="M8 7L11.75 7C11.94 7 12.13 6.92 12.28 6.78C12.42 6.63 12.5 6.44 12.5 6.25C12.5 6.05 12.42 5.86 12.28 5.71C12.13 5.57 11.94 5.5 11.75 5.5L7 5.5L7 0.75C7 0.55 6.92 0.36 6.78 0.21C6.63 0.07 6.44 0 6.25 0C6.05 0 5.86 0.07 5.71 0.21C5.57 0.36 5.5 0.55 5.5 0.75L5.5 5.5L0.75 5.5C0.55 5.5 0.36 5.57 0.21 5.71C0.07 5.86 0 6.05 0 6.25C0 6.44 0.07 6.63 0.21 6.78C0.36 6.92 0.55 7 0.75 7L5.5 7L5.5 11.75C5.5 11.94 5.57 12.13 5.71 12.28C5.86 12.42 6.05 12.5 6.25 12.5C6.44 12.5 6.63 12.42 6.78 12.28C6.92 12.13 7 11.94 7 11.75L7 7L8 7Z" fill="#FFFFFF" fill-opacity="1.000000" fill-rule="evenodd"/>
</svg>
