<svg width="10.115234" height="11.562561" viewBox="0 0 10.1152 11.5626" fill="none" xmlns="http://www.w3.org/2000/svg" xmlns:xlink="http://www.w3.org/1999/xlink">
	<desc>
			Created with Pixso.
	</desc>
	<defs/>
	<path id="Vector" d="M1.35 0.8C1.29 0.76 1.22 0.75 1.15 0.75C1.08 0.74 1.01 0.76 0.95 0.8C0.89 0.83 0.83 0.88 0.8 0.94C0.76 1.01 0.75 1.07 0.75 1.14L0.75 10.41C0.75 10.48 0.76 10.55 0.8 10.61C0.83 10.67 0.89 10.72 0.95 10.76C1.01 10.79 1.08 10.81 1.15 10.81C1.22 10.81 1.29 10.79 1.35 10.75L9.16 6.12C9.22 6.08 9.27 6.03 9.31 5.97C9.34 5.91 9.36 5.85 9.36 5.78C9.36 5.71 9.34 5.64 9.31 5.58C9.27 5.52 9.22 5.47 9.16 5.43L1.35 0.8Z" fill="#323749" fill-opacity="1.000000" fill-rule="nonzero"/>
	<path id="Vector" d="M1.15 0.75C1.08 0.74 1.01 0.76 0.95 0.8C0.89 0.83 0.83 0.88 0.8 0.94C0.76 1.01 0.75 1.07 0.75 1.14L0.75 10.41C0.75 10.48 0.76 10.55 0.8 10.61C0.83 10.67 0.89 10.72 0.95 10.76C1.01 10.79 1.08 10.81 1.15 10.81C1.22 10.81 1.29 10.79 1.35 10.75L9.16 6.12C9.22 6.08 9.27 6.03 9.31 5.97C9.34 5.91 9.36 5.85 9.36 5.78C9.36 5.71 9.34 5.64 9.31 5.58C9.27 5.52 9.22 5.47 9.16 5.43L1.35 0.8C1.29 0.76 1.22 0.75 1.15 0.75Z" stroke="#323749" stroke-opacity="1.000000" stroke-width="1.500000" stroke-linejoin="round"/>
</svg>
