<svg width="16.000000" height="16.000000" viewBox="0 0 16 16" fill="none" xmlns="http://www.w3.org/2000/svg" xmlns:xlink="http://www.w3.org/1999/xlink">
	<desc>
			Created with Pixso.
	</desc>
	<defs>
		<clipPath id="clip0_1668">
			<rect id="calendar" width="16.000000" height="16.000000" fill="white" fill-opacity="0"/>
		</clipPath>
	</defs>
	<rect id="calendar" width="16.000000" height="16.000000" fill="#FFFFFF" fill-opacity="0"/>
	<g clip-path="url(#clip0_1668)">
		<path id="Vector" d="M5.33 9.33C5.14 9.33 4.98 9.26 4.85 9.14C4.72 9.01 4.66 8.85 4.66 8.66C4.66 8.47 4.73 8.31 4.85 8.19C4.98 8.06 5.14 7.99 5.33 8C5.52 8 5.68 8.06 5.8 8.19C5.93 8.32 6 8.47 6 8.66C6 8.85 5.93 9.01 5.8 9.14C5.67 9.27 5.52 9.33 5.33 9.33ZM8 9.33C7.81 9.33 7.65 9.26 7.52 9.14C7.39 9.01 7.33 8.85 7.33 8.66C7.33 8.47 7.39 8.31 7.52 8.19C7.65 8.06 7.81 7.99 8 8C8.18 8 8.34 8.06 8.47 8.19C8.6 8.32 8.66 8.47 8.66 8.66C8.66 8.85 8.6 9.01 8.47 9.14C8.34 9.27 8.18 9.33 8 9.33ZM10.66 9.33C10.47 9.33 10.31 9.26 10.19 9.14C10.06 9.01 9.99 8.85 10 8.66C10 8.47 10.06 8.31 10.19 8.19C10.32 8.06 10.47 7.99 10.66 8C10.85 8 11.01 8.06 11.14 8.19C11.27 8.32 11.33 8.47 11.33 8.66C11.33 8.85 11.26 9.01 11.14 9.14C11.01 9.27 10.85 9.33 10.66 9.33ZM3.33 14.66C2.96 14.66 2.65 14.53 2.39 14.27C2.12 14.01 1.99 13.69 2 13.33L2 4C2 3.63 2.13 3.31 2.39 3.05C2.65 2.79 2.96 2.66 3.33 2.66L4 2.66L4 2C4 1.81 4.06 1.65 4.19 1.52C4.32 1.39 4.47 1.33 4.66 1.33C4.85 1.33 5.01 1.39 5.14 1.52C5.27 1.65 5.33 1.81 5.33 2L5.33 2.66L10.66 2.66L10.66 2C10.66 1.81 10.73 1.65 10.85 1.52C10.98 1.39 11.14 1.33 11.33 1.33C11.52 1.33 11.68 1.39 11.8 1.52C11.93 1.65 12 1.81 12 2L12 2.66L12.66 2.66C13.03 2.66 13.34 2.79 13.6 3.05C13.87 3.32 14 3.63 14 4L14 13.33C14 13.7 13.86 14.01 13.6 14.27C13.34 14.53 13.03 14.66 12.66 14.66L3.33 14.66ZM3.33 13.33L12.66 13.33L12.66 6.66L3.33 6.66L3.33 13.33Z" fill="#5B5F6E" fill-opacity="1.000000" fill-rule="nonzero"/>
	</g>
</svg>
