<svg width="13.333252" height="13.333344" viewBox="0 0 13.3333 13.3333" fill="none" xmlns="http://www.w3.org/2000/svg" xmlns:xlink="http://www.w3.org/1999/xlink">
	<desc>
			Created with Pixso.
	</desc>
	<defs/>
	<path id="Vector" d="M13.2 5.36L12.66 5.36L12.66 5.33L6.66 5.33L6.66 8L10.43 8C9.88 9.55 8.4 10.66 6.66 10.66C4.45 10.66 2.66 8.87 2.66 6.66C2.66 4.45 4.45 2.66 6.66 2.66C7.68 2.66 8.61 3.05 9.32 3.67L11.2 1.79C10.01 0.68 8.42 0 6.66 0C2.98 0 0 2.98 0 6.66C0 10.34 2.98 13.33 6.66 13.33C10.34 13.33 13.33 10.34 13.33 6.66C13.33 6.21 13.28 5.78 13.2 5.36Z" fill="#FFC107" fill-opacity="1.000000" fill-rule="nonzero"/>
	<path id="Vector" d="M0.76 3.56L2.95 5.17C3.55 3.7 4.98 2.66 6.66 2.66C7.68 2.66 8.61 3.05 9.32 3.67L11.2 1.79C10.01 0.68 8.42 0 6.66 0C4.1 0 1.88 1.44 0.76 3.56Z" fill="#FF3D00" fill-opacity="1.000000" fill-rule="nonzero"/>
	<path id="Vector" d="M6.66 13.33C8.38 13.33 9.95 12.67 11.13 11.6L9.07 9.85C8.38 10.38 7.53 10.66 6.66 10.66C4.93 10.66 3.46 9.56 2.9 8.01L0.73 9.69C1.83 11.85 4.07 13.33 6.66 13.33Z" fill="#4CAF50" fill-opacity="1.000000" fill-rule="nonzero"/>
	<path id="Vector" d="M13.2 5.36L12.66 5.36L12.66 5.33L6.66 5.33L6.66 8L10.43 8C10.17 8.73 9.69 9.38 9.07 9.85L9.07 9.85L11.13 11.6C10.99 11.73 13.33 10 13.33 6.66C13.33 6.21 13.28 5.78 13.2 5.36Z" fill="#1976D2" fill-opacity="1.000000" fill-rule="nonzero"/>
</svg>
