<svg width="12.799805" height="11.200012" viewBox="0 0 12.7998 11.2" fill="none" xmlns="http://www.w3.org/2000/svg" xmlns:xlink="http://www.w3.org/1999/xlink">
	<desc>
			Created with Pixso.
	</desc>
	<defs/>
	<path id="Vector" d="M0.79 0C0.58 0 0.38 0.08 0.23 0.23C0.08 0.38 0 0.58 0 0.79L0 10.4C0 10.61 0.08 10.81 0.23 10.96C0.38 11.11 0.58 11.2 0.79 11.2C1.01 11.2 1.21 11.11 1.36 10.96C1.51 10.81 1.59 10.61 1.59 10.4L1.59 0.79C1.59 0.58 1.51 0.38 1.36 0.23C1.21 0.08 1.01 0 0.79 0ZM9.03 7.43C8.88 7.58 8.8 7.78 8.8 7.99C8.81 8.2 8.89 8.4 9.04 8.55C9.19 8.7 9.39 8.78 9.6 8.79C9.81 8.79 10.01 8.71 10.16 8.56L12.56 6.16C12.71 6.01 12.79 5.81 12.79 5.59C12.79 5.38 12.71 5.18 12.56 5.03L10.16 2.63C10.09 2.55 10 2.49 9.9 2.45C9.8 2.41 9.7 2.39 9.59 2.39C9.49 2.38 9.38 2.4 9.28 2.44C9.18 2.48 9.09 2.54 9.02 2.62C8.94 2.69 8.88 2.78 8.84 2.88C8.8 2.98 8.78 3.09 8.79 3.19C8.79 3.3 8.81 3.4 8.85 3.5C8.89 3.6 8.95 3.69 9.03 3.76L10.06 4.79L4 4.79C3.78 4.79 3.58 4.88 3.43 5.03C3.28 5.18 3.2 5.38 3.2 5.59C3.2 5.81 3.28 6.01 3.43 6.16C3.58 6.31 3.78 6.4 4 6.4L10.06 6.4L9.03 7.43Z" fill="#323749" fill-opacity="1.000000" fill-rule="evenodd"/>
</svg>
