<svg width="13.333313" height="13.333344" viewBox="0 0 13.3333 13.3333" fill="none" xmlns="http://www.w3.org/2000/svg" xmlns:xlink="http://www.w3.org/1999/xlink">
	<desc>
			Created with Pixso.
	</desc>
	<defs/>
	<path id="Vector" d="M6.66 13.33C2.99 13.33 0 10.34 0 6.66C0 2.99 2.99 0 6.66 0C10.34 0 13.33 2.69 13.33 6C13.33 8.2 11.54 10 9.33 10L8.15 10C7.96 10 7.82 10.14 7.82 10.33C7.82 10.41 7.85 10.48 7.9 10.55C8.17 10.86 8.33 11.26 8.33 11.66C8.33 12.1 8.15 12.53 7.84 12.84C7.53 13.15 7.1 13.33 6.66 13.33ZM6.66 1.33C3.72 1.33 1.33 3.72 1.33 6.66C1.33 9.6 3.72 12 6.66 12C6.85 12 7 11.85 7 11.66C6.99 11.58 6.96 11.49 6.9 11.43C6.63 11.12 6.48 10.73 6.48 10.33C6.48 9.89 6.66 9.46 6.97 9.15C7.28 8.84 7.71 8.66 8.15 8.66L9.33 8.66C10.8 8.66 12 7.47 12 6C12 3.42 9.6 1.33 6.66 1.33Z" fill="#5B5F6E" fill-opacity="1.000000" fill-rule="nonzero"/>
	<path id="Vector" d="M4 6.33C4 6.88 3.55 7.33 3 7.33C2.44 7.33 2 6.88 2 6.33C2 5.78 2.44 5.33 3 5.33C3.55 5.33 4 5.78 4 6.33Z" fill="#5B5F6E" fill-opacity="1.000000" fill-rule="evenodd"/>
	<path id="Vector" d="M6 3.66C6 4.21 5.55 4.66 5 4.66C4.44 4.66 4 4.21 4 3.66C4 3.11 4.44 2.66 5 2.66C5.55 2.66 6 3.11 6 3.66Z" fill="#5B5F6E" fill-opacity="1.000000" fill-rule="evenodd"/>
	<path id="Vector" d="M9.33 3.66C9.33 4.21 8.88 4.66 8.33 4.66C7.78 4.66 7.33 4.21 7.33 3.66C7.33 3.11 7.78 2.66 8.33 2.66C8.88 2.66 9.33 3.11 9.33 3.66Z" fill="#5B5F6E" fill-opacity="1.000000" fill-rule="evenodd"/>
</svg>
