<svg width="12.000000" height="12.000000" viewBox="0 0 12 12" fill="none" xmlns="http://www.w3.org/2000/svg" xmlns:xlink="http://www.w3.org/1999/xlink">
	<desc>
			Created with Pixso.
	</desc>
	<defs/>
	<path id="Vector" d="M5.23 1.59L0.75 1.59C0.54 1.59 0.36 1.51 0.22 1.36C0.07 1.21 0 1.02 0 0.8C0 0.58 0.07 0.39 0.22 0.23C0.36 0.07 0.54 0 0.75 0L11.24 0C11.45 0 11.63 0.07 11.77 0.22C11.92 0.38 12 0.56 12 0.78C12 1 11.92 1.19 11.77 1.35C11.63 1.51 11.45 1.59 11.24 1.59L6.77 1.59L6.77 11.21C6.77 11.43 6.69 11.61 6.54 11.77C6.4 11.92 6.22 12 6 12C5.79 12 5.61 11.92 5.46 11.76C5.3 11.6 5.23 11.41 5.23 11.19L5.23 1.59Z" fill="#5B5F6E" fill-opacity="1.000000" fill-rule="nonzero"/>
</svg>
