<svg width="88" height="19" viewBox="0 0 88 19" fill="none" xmlns="http://www.w3.org/2000/svg">
<path d="M1.475 18C1.29167 18 1.14167 17.9417 1.025 17.825C0.908333 17.7083 0.85 17.5583 0.85 17.375V1.125C0.85 0.941666 0.908333 0.791666 1.025 0.675C1.14167 0.558332 1.29167 0.499999 1.475 0.499999H8.1C10.1833 0.499999 11.825 0.983332 13.025 1.95C14.225 2.9 14.825 4.275 14.825 6.075C14.825 7.29167 14.5333 8.30833 13.95 9.125C13.3667 9.94167 12.5833 10.55 11.6 10.95L15.125 17.2C15.175 17.3 15.2 17.3917 15.2 17.475C15.2 17.6083 15.15 17.7333 15.05 17.85C14.95 17.95 14.825 18 14.675 18H11.9C11.6 18 11.375 17.925 11.225 17.775C11.075 17.6083 10.9667 17.4583 10.9 17.325L7.85 11.6H4.825V17.375C4.825 17.5583 4.76667 17.7083 4.65 17.825C4.53333 17.9417 4.38333 18 4.2 18H1.475ZM4.825 8.425H8.025C8.94167 8.425 9.61667 8.21667 10.05 7.8C10.5 7.38333 10.725 6.8 10.725 6.05C10.725 5.3 10.5083 4.70833 10.075 4.275C9.64167 3.84167 8.95833 3.625 8.025 3.625H4.825V8.425ZM18.516 18C18.3327 18 18.1827 17.9417 18.066 17.825C17.9493 17.7083 17.891 17.5583 17.891 17.375V1.125C17.891 0.941666 17.9493 0.791666 18.066 0.675C18.1827 0.558332 18.3327 0.499999 18.516 0.499999H25.941C27.3243 0.499999 28.4577 0.699999 29.341 1.1C30.2243 1.5 30.8743 2.06667 31.291 2.8C31.7243 3.53333 31.941 4.39167 31.941 5.375C31.941 5.99167 31.8243 6.53333 31.591 7C31.3743 7.46667 31.0993 7.85 30.766 8.15C30.4494 8.45 30.141 8.675 29.841 8.825C30.491 9.125 31.0577 9.625 31.541 10.325C32.041 11.0083 32.291 11.825 32.291 12.775C32.291 13.825 32.0577 14.7417 31.591 15.525C31.1243 16.3083 30.4327 16.9167 29.516 17.35C28.5993 17.7833 27.4827 18 26.166 18H18.516ZM21.866 15.075H25.691C26.5077 15.075 27.1243 14.85 27.541 14.4C27.9577 13.9333 28.166 13.3833 28.166 12.75C28.166 12.1 27.9493 11.5583 27.516 11.125C27.0993 10.675 26.491 10.45 25.691 10.45H21.866V15.075ZM21.866 7.575H25.466C26.2493 7.575 26.8327 7.38333 27.216 7C27.616 6.6 27.816 6.09167 27.816 5.475C27.816 4.85833 27.616 4.36667 27.216 4C26.8327 3.61667 26.2493 3.425 25.466 3.425H21.866V7.575ZM35.8988 18C35.7155 18 35.5655 17.9417 35.4488 17.825C35.3322 17.7083 35.2738 17.5583 35.2738 17.375V1.125C35.2738 0.941666 35.3322 0.791666 35.4488 0.675C35.5655 0.558332 35.7155 0.499999 35.8988 0.499999H38.6738C38.8572 0.499999 39.0072 0.558332 39.1238 0.675C39.2405 0.791666 39.2988 0.941666 39.2988 1.125V14.65H47.0488C47.2322 14.65 47.3822 14.7083 47.4988 14.825C47.6155 14.9417 47.6738 15.0917 47.6738 15.275V17.375C47.6738 17.5583 47.6155 17.7083 47.4988 17.825C47.3822 17.9417 47.2322 18 47.0488 18H35.8988ZM50.5961 18C50.4128 18 50.2628 17.9417 50.1461 17.825C50.0294 17.7083 49.9711 17.5583 49.9711 17.375V1.125C49.9711 0.941666 50.0294 0.791666 50.1461 0.675C50.2628 0.558332 50.4128 0.499999 50.5961 0.499999H52.8711C53.1211 0.499999 53.3044 0.558332 53.4211 0.675C53.5378 0.791666 53.6128 0.883332 53.6461 0.949999L60.3211 11.375V1.125C60.3211 0.941666 60.3794 0.791666 60.4961 0.675C60.6128 0.558332 60.7544 0.499999 60.9211 0.499999H63.4711C63.6544 0.499999 63.8044 0.558332 63.9211 0.675C64.0378 0.791666 64.0961 0.941666 64.0961 1.125V17.375C64.0961 17.5417 64.0378 17.6917 63.9211 17.825C63.8044 17.9417 63.6544 18 63.4711 18H61.1711C60.9211 18 60.7378 17.9417 60.6211 17.825C60.5211 17.6917 60.4461 17.6 60.3961 17.55L53.7461 7.45V17.375C53.7461 17.5583 53.6878 17.7083 53.5711 17.825C53.4544 17.9417 53.3044 18 53.1211 18H50.5961ZM68.4184 18C68.235 18 68.085 17.9417 67.9684 17.825C67.8517 17.7083 67.7934 17.5583 67.7934 17.375V1.125C67.7934 0.941666 67.8517 0.791666 67.9684 0.675C68.085 0.558332 68.235 0.499999 68.4184 0.499999H71.0684C71.2517 0.499999 71.4017 0.558332 71.5184 0.675C71.635 0.791666 71.6934 0.941666 71.6934 1.125V6.825L76.8434 0.974999C76.91 0.874999 77.0184 0.774999 77.1684 0.675C77.335 0.558332 77.5517 0.499999 77.8184 0.499999H80.8434C80.9934 0.499999 81.1184 0.558332 81.2184 0.675C81.3184 0.774999 81.3684 0.891666 81.3684 1.025C81.3684 1.14167 81.335 1.24167 81.2684 1.325L74.8434 8.875L81.7434 17.175C81.81 17.2417 81.8434 17.3417 81.8434 17.475C81.8434 17.6083 81.7934 17.7333 81.6934 17.85C81.5934 17.95 81.4684 18 81.3184 18H78.1934C77.8934 18 77.6684 17.9333 77.5184 17.8C77.3684 17.6667 77.2684 17.575 77.2184 17.525L71.6934 11.125V17.375C71.6934 17.5583 71.635 17.7083 71.5184 17.825C71.4017 17.9417 71.2517 18 71.0684 18H68.4184Z" fill="#262626"/>
<path d="M85.4049 18.2C84.7382 18.2 84.1632 17.975 83.6799 17.525C83.2132 17.0583 82.9799 16.4667 82.9799 15.75C82.9799 15.0333 83.2132 14.4583 83.6799 14.025C84.1632 13.575 84.7382 13.35 85.4049 13.35C86.0882 13.35 86.6632 13.575 87.1299 14.025C87.5965 14.4583 87.8299 15.0333 87.8299 15.75C87.8299 16.4667 87.5965 17.0583 87.1299 17.525C86.6632 17.975 86.0882 18.2 85.4049 18.2Z" fill="#1DB954"/>
</svg>
