<svg width="16.000000" height="16.000000" viewBox="0 0 16 16" fill="none" xmlns="http://www.w3.org/2000/svg" xmlns:xlink="http://www.w3.org/1999/xlink">
	<desc>
			Created with Pixso.
	</desc>
	<defs/>
	<path id="Vector" d="M2.03 6.2C2 6.12 1.99 6.03 2 5.94C2 5.85 2.03 5.76 2.07 5.68C2.11 5.6 2.17 5.53 2.23 5.48C2.3 5.42 2.38 5.38 2.47 5.35C2.55 5.33 2.64 5.32 2.73 5.33C2.82 5.34 2.91 5.36 2.98 5.41C3.06 5.45 3.13 5.51 3.19 5.58C3.24 5.65 3.28 5.73 3.3 5.82C4.69 10.47 11.29 10.48 12.68 5.82C12.71 5.74 12.75 5.66 12.81 5.59C12.86 5.52 12.93 5.46 13.01 5.42C13.08 5.38 13.17 5.36 13.25 5.35C13.34 5.34 13.43 5.35 13.51 5.37C13.6 5.4 13.68 5.44 13.74 5.49C13.81 5.55 13.87 5.61 13.91 5.69C13.95 5.77 13.98 5.85 13.99 5.94C14 6.03 13.99 6.12 13.96 6.2C13.72 7.03 13.31 7.81 12.75 8.48L13.6 9.33C13.73 9.45 13.79 9.62 13.79 9.8C13.79 9.97 13.72 10.14 13.6 10.26C13.47 10.39 13.31 10.46 13.13 10.46C12.96 10.46 12.79 10.39 12.66 10.27L11.79 9.4C11.32 9.75 10.79 10.04 10.24 10.24L10.48 11.13C10.5 11.22 10.51 11.31 10.5 11.4C10.49 11.49 10.47 11.57 10.42 11.65C10.38 11.73 10.32 11.79 10.25 11.85C10.18 11.9 10.1 11.94 10.01 11.97C9.93 11.99 9.84 12 9.75 11.98C9.66 11.97 9.58 11.94 9.5 11.9C9.42 11.85 9.36 11.79 9.3 11.72C9.25 11.65 9.21 11.56 9.19 11.48L8.95 10.57C8.32 10.67 7.67 10.67 7.04 10.57L6.8 11.48C6.78 11.56 6.74 11.65 6.69 11.72C6.63 11.79 6.57 11.85 6.49 11.9C6.41 11.94 6.33 11.97 6.24 11.98C6.15 12 6.06 11.99 5.98 11.97C5.89 11.94 5.81 11.9 5.74 11.85C5.67 11.79 5.61 11.73 5.57 11.65C5.52 11.57 5.5 11.49 5.49 11.4C5.48 11.31 5.49 11.22 5.51 11.13L5.75 10.24C5.19 10.04 4.67 9.75 4.2 9.4L3.33 10.27C3.2 10.4 3.03 10.47 2.86 10.47C2.68 10.47 2.51 10.4 2.39 10.27C2.26 10.15 2.19 9.98 2.19 9.8C2.19 9.62 2.26 9.45 2.38 9.33L3.23 8.48C2.71 7.85 2.29 7.1 2.03 6.2L2.03 6.2Z" fill="#323749" fill-opacity="1.000000" fill-rule="nonzero"/>
</svg>
